<mxfile host="app.diagrams.net" modified="2024-06-20T05:30:28.395Z" agent="Mozilla/5.0 (Windows NT 10.0; Win64; x64) AppleWebKit/537.36 (KHTML, like Gecko) Chrome/126.0.0.0 Safari/537.36" etag="nfYuI-yNuUymWcXdRZKU" version="24.5.5" type="google">
  <diagram id="TvFTJpD-84633DW3qTHx" name="EntidadRelacion">
    <mxGraphModel grid="1" page="1" gridSize="10" guides="1" tooltips="1" connect="1" arrows="1" fold="1" pageScale="1" pageWidth="827" pageHeight="1169" math="0" shadow="0">
      <root>
        <mxCell id="0" />
        <mxCell id="1" parent="0" />
        <mxCell id="t69FuDpfa9cgYGg4j1Pl-1" value="Roles" style="whiteSpace=wrap;html=1;align=center;" vertex="1" parent="1">
          <mxGeometry x="180" y="320" width="80" height="40" as="geometry" />
        </mxCell>
        <mxCell id="v7Xdblkcc-aNvK0DpxJ9-2" style="edgeStyle=orthogonalEdgeStyle;rounded=0;orthogonalLoop=1;jettySize=auto;html=1;entryX=0.5;entryY=0;entryDx=0;entryDy=0;endArrow=ERmany;endFill=0;startArrow=ERmany;startFill=0;" edge="1" parent="1" source="7DUqJgxupOhNcwciF-pr-10" target="t69FuDpfa9cgYGg4j1Pl-5">
          <mxGeometry relative="1" as="geometry" />
        </mxCell>
        <mxCell id="v7Xdblkcc-aNvK0DpxJ9-4" style="edgeStyle=orthogonalEdgeStyle;rounded=0;orthogonalLoop=1;jettySize=auto;html=1;entryX=0;entryY=0.5;entryDx=0;entryDy=0;startArrow=ERmany;startFill=0;endArrow=none;endFill=0;" edge="1" parent="1" source="JToe3xS23w6gzhWZ4CIW-6" target="t69FuDpfa9cgYGg4j1Pl-3">
          <mxGeometry relative="1" as="geometry" />
        </mxCell>
        <mxCell id="t69FuDpfa9cgYGg4j1Pl-2" value="Registro" style="whiteSpace=wrap;html=1;align=center;" vertex="1" parent="1">
          <mxGeometry x="610" y="320" width="80" height="40" as="geometry" />
        </mxCell>
        <mxCell id="t69FuDpfa9cgYGg4j1Pl-3" value="Paquetes Afiliacion" style="whiteSpace=wrap;html=1;align=center;" vertex="1" parent="1">
          <mxGeometry x="920" y="90" width="100" height="40" as="geometry" />
        </mxCell>
        <mxCell id="t69FuDpfa9cgYGg4j1Pl-4" value="Historial medico" style="whiteSpace=wrap;html=1;align=center;" vertex="1" parent="1">
          <mxGeometry x="1040" y="320" width="100" height="40" as="geometry" />
        </mxCell>
        <mxCell id="t69FuDpfa9cgYGg4j1Pl-5" value="Solicitudes&amp;nbsp;" style="whiteSpace=wrap;html=1;align=center;" vertex="1" parent="1">
          <mxGeometry x="620" y="620" width="100" height="40" as="geometry" />
        </mxCell>
        <mxCell id="v7Xdblkcc-aNvK0DpxJ9-3" style="edgeStyle=orthogonalEdgeStyle;rounded=0;orthogonalLoop=1;jettySize=auto;html=1;endArrow=none;endFill=0;startArrow=ERmany;startFill=0;" edge="1" parent="1" source="JToe3xS23w6gzhWZ4CIW-2" target="t69FuDpfa9cgYGg4j1Pl-2">
          <mxGeometry relative="1" as="geometry" />
        </mxCell>
        <mxCell id="t69FuDpfa9cgYGg4j1Pl-6" value="Publicaciones" style="whiteSpace=wrap;html=1;align=center;" vertex="1" parent="1">
          <mxGeometry x="214" y="190" width="100" height="40" as="geometry" />
        </mxCell>
        <mxCell id="7DUqJgxupOhNcwciF-pr-4" style="edgeStyle=orthogonalEdgeStyle;rounded=0;orthogonalLoop=1;jettySize=auto;html=1;endArrow=ERmany;endFill=0;startArrow=ERmany;startFill=0;" edge="1" parent="1" source="7DUqJgxupOhNcwciF-pr-6" target="t69FuDpfa9cgYGg4j1Pl-4">
          <mxGeometry relative="1" as="geometry" />
        </mxCell>
        <mxCell id="t69FuDpfa9cgYGg4j1Pl-8" value="Doctores" style="whiteSpace=wrap;html=1;align=center;" vertex="1" parent="1">
          <mxGeometry x="1410" y="320" width="100" height="40" as="geometry" />
        </mxCell>
        <mxCell id="7DUqJgxupOhNcwciF-pr-11" style="edgeStyle=orthogonalEdgeStyle;rounded=0;orthogonalLoop=1;jettySize=auto;html=1;startArrow=ERmany;startFill=0;endArrow=none;endFill=0;" edge="1" parent="1" source="7DUqJgxupOhNcwciF-pr-14" target="t69FuDpfa9cgYGg4j1Pl-4">
          <mxGeometry relative="1" as="geometry" />
        </mxCell>
        <mxCell id="7DUqJgxupOhNcwciF-pr-22" style="edgeStyle=orthogonalEdgeStyle;rounded=0;orthogonalLoop=1;jettySize=auto;html=1;exitX=1;exitY=0.5;exitDx=0;exitDy=0;entryX=0;entryY=0.5;entryDx=0;entryDy=0;startArrow=ERmany;startFill=0;endArrow=ERmany;endFill=0;" edge="1" parent="1" source="7DUqJgxupOhNcwciF-pr-48" target="t69FuDpfa9cgYGg4j1Pl-18">
          <mxGeometry relative="1" as="geometry">
            <mxPoint x="320" y="720" as="targetPoint" />
          </mxGeometry>
        </mxCell>
        <mxCell id="7DUqJgxupOhNcwciF-pr-23" style="edgeStyle=orthogonalEdgeStyle;rounded=0;orthogonalLoop=1;jettySize=auto;html=1;startArrow=ERmany;startFill=0;endArrow=ERmany;endFill=0;" edge="1" parent="1" source="7DUqJgxupOhNcwciF-pr-50" target="t69FuDpfa9cgYGg4j1Pl-13">
          <mxGeometry relative="1" as="geometry" />
        </mxCell>
        <mxCell id="7DUqJgxupOhNcwciF-pr-24" style="edgeStyle=orthogonalEdgeStyle;rounded=0;orthogonalLoop=1;jettySize=auto;html=1;entryX=0.5;entryY=0;entryDx=0;entryDy=0;exitX=0.5;exitY=1;exitDx=0;exitDy=0;startArrow=ERmany;startFill=0;endArrow=ERmany;endFill=0;" edge="1" parent="1" source="7DUqJgxupOhNcwciF-pr-53" target="t69FuDpfa9cgYGg4j1Pl-14">
          <mxGeometry relative="1" as="geometry" />
        </mxCell>
        <mxCell id="7DUqJgxupOhNcwciF-pr-78" style="edgeStyle=orthogonalEdgeStyle;rounded=0;orthogonalLoop=1;jettySize=auto;html=1;entryX=0.75;entryY=1;entryDx=0;entryDy=0;exitX=1;exitY=0.5;exitDx=0;exitDy=0;startArrow=ERmany;startFill=0;endArrow=ERmany;endFill=0;" edge="1" parent="1" source="7DUqJgxupOhNcwciF-pr-79" target="t69FuDpfa9cgYGg4j1Pl-8">
          <mxGeometry relative="1" as="geometry">
            <Array as="points">
              <mxPoint x="1485" y="480" />
            </Array>
          </mxGeometry>
        </mxCell>
        <mxCell id="t69FuDpfa9cgYGg4j1Pl-9" value="Citas" style="whiteSpace=wrap;html=1;align=center;" vertex="1" parent="1">
          <mxGeometry x="230" y="550" width="100" height="40" as="geometry" />
        </mxCell>
        <mxCell id="t69FuDpfa9cgYGg4j1Pl-10" value="Consultorio" style="whiteSpace=wrap;html=1;align=center;" vertex="1" parent="1">
          <mxGeometry x="1470" y="565" width="100" height="40" as="geometry" />
        </mxCell>
        <mxCell id="7DUqJgxupOhNcwciF-pr-12" style="edgeStyle=orthogonalEdgeStyle;rounded=0;orthogonalLoop=1;jettySize=auto;html=1;entryX=0.25;entryY=1;entryDx=0;entryDy=0;endArrow=none;endFill=0;startArrow=ERmany;startFill=0;" edge="1" parent="1" source="7DUqJgxupOhNcwciF-pr-69" target="t69FuDpfa9cgYGg4j1Pl-4">
          <mxGeometry relative="1" as="geometry" />
        </mxCell>
        <mxCell id="7DUqJgxupOhNcwciF-pr-27" style="edgeStyle=orthogonalEdgeStyle;rounded=0;orthogonalLoop=1;jettySize=auto;html=1;exitX=0.5;exitY=1;exitDx=0;exitDy=0;startArrow=ERmany;startFill=0;endArrow=ERmany;endFill=0;" edge="1" parent="1" source="7DUqJgxupOhNcwciF-pr-47" target="t69FuDpfa9cgYGg4j1Pl-19">
          <mxGeometry relative="1" as="geometry" />
        </mxCell>
        <mxCell id="7DUqJgxupOhNcwciF-pr-75" style="edgeStyle=orthogonalEdgeStyle;rounded=0;orthogonalLoop=1;jettySize=auto;html=1;exitX=0.5;exitY=0;exitDx=0;exitDy=0;startArrow=ERmany;startFill=0;endArrow=ERmany;endFill=0;" edge="1" parent="1" source="7DUqJgxupOhNcwciF-pr-76" target="t69FuDpfa9cgYGg4j1Pl-8">
          <mxGeometry relative="1" as="geometry" />
        </mxCell>
        <mxCell id="t69FuDpfa9cgYGg4j1Pl-11" value="Examenes" style="whiteSpace=wrap;html=1;align=center;" vertex="1" parent="1">
          <mxGeometry x="1050" y="720" width="100" height="40" as="geometry" />
        </mxCell>
        <mxCell id="7DUqJgxupOhNcwciF-pr-59" style="edgeStyle=orthogonalEdgeStyle;rounded=0;orthogonalLoop=1;jettySize=auto;html=1;entryX=0;entryY=1;entryDx=0;entryDy=0;endArrow=none;endFill=0;startArrow=ERmany;startFill=0;" edge="1" parent="1" source="7DUqJgxupOhNcwciF-pr-61" target="t69FuDpfa9cgYGg4j1Pl-4">
          <mxGeometry relative="1" as="geometry">
            <Array as="points">
              <mxPoint x="1040" y="400" />
            </Array>
          </mxGeometry>
        </mxCell>
        <mxCell id="t69FuDpfa9cgYGg4j1Pl-12" value="Receta medicamento" style="whiteSpace=wrap;html=1;align=center;" vertex="1" parent="1">
          <mxGeometry x="-190" y="750" width="100" height="40" as="geometry" />
        </mxCell>
        <mxCell id="7DUqJgxupOhNcwciF-pr-52" style="edgeStyle=orthogonalEdgeStyle;rounded=0;orthogonalLoop=1;jettySize=auto;html=1;entryX=0.75;entryY=1;entryDx=0;entryDy=0;endArrow=none;endFill=0;startArrow=ERmany;startFill=0;exitX=0.5;exitY=0;exitDx=0;exitDy=0;" edge="1" parent="1" source="7DUqJgxupOhNcwciF-pr-71" target="t69FuDpfa9cgYGg4j1Pl-4">
          <mxGeometry relative="1" as="geometry">
            <Array as="points">
              <mxPoint x="1714" y="630" />
              <mxPoint x="1190" y="630" />
              <mxPoint x="1190" y="430" />
              <mxPoint x="1115" y="430" />
            </Array>
          </mxGeometry>
        </mxCell>
        <mxCell id="t69FuDpfa9cgYGg4j1Pl-13" value="Autorizacion medica" style="whiteSpace=wrap;html=1;align=center;" vertex="1" parent="1">
          <mxGeometry x="230" y="1380" width="100" height="40" as="geometry" />
        </mxCell>
        <mxCell id="t69FuDpfa9cgYGg4j1Pl-14" value="CoPago" style="whiteSpace=wrap;html=1;align=center;" vertex="1" parent="1">
          <mxGeometry x="480" y="1350" width="100" height="40" as="geometry" />
        </mxCell>
        <mxCell id="t69FuDpfa9cgYGg4j1Pl-15" value="PagoAfiliacion" style="whiteSpace=wrap;html=1;align=center;" vertex="1" parent="1">
          <mxGeometry x="1330" y="90" width="100" height="40" as="geometry" />
        </mxCell>
        <mxCell id="7DUqJgxupOhNcwciF-pr-60" style="edgeStyle=orthogonalEdgeStyle;rounded=0;orthogonalLoop=1;jettySize=auto;html=1;entryX=1;entryY=1;entryDx=0;entryDy=0;startArrow=ERmany;startFill=0;endArrow=none;endFill=0;" edge="1" parent="1" source="7DUqJgxupOhNcwciF-pr-63" target="t69FuDpfa9cgYGg4j1Pl-4">
          <mxGeometry relative="1" as="geometry">
            <Array as="points" />
          </mxGeometry>
        </mxCell>
        <mxCell id="t69FuDpfa9cgYGg4j1Pl-16" value="Resultados" style="whiteSpace=wrap;html=1;align=center;" vertex="1" parent="1">
          <mxGeometry x="1241" y="1040" width="100" height="40" as="geometry" />
        </mxCell>
        <mxCell id="t69FuDpfa9cgYGg4j1Pl-18" value="CategoriaCita" style="whiteSpace=wrap;html=1;align=center;" vertex="1" parent="1">
          <mxGeometry x="620" y="1100" width="110" height="40" as="geometry" />
        </mxCell>
        <mxCell id="t69FuDpfa9cgYGg4j1Pl-19" value="CategoriaExamen" style="whiteSpace=wrap;html=1;align=center;" vertex="1" parent="1">
          <mxGeometry x="770" y="910" width="110" height="40" as="geometry" />
        </mxCell>
        <mxCell id="t69FuDpfa9cgYGg4j1Pl-20" style="edgeStyle=orthogonalEdgeStyle;rounded=0;orthogonalLoop=1;jettySize=auto;html=1;exitX=0.5;exitY=1;exitDx=0;exitDy=0;" edge="1" parent="1">
          <mxGeometry relative="1" as="geometry">
            <mxPoint x="680" y="1140" as="sourcePoint" />
            <mxPoint x="680" y="1140" as="targetPoint" />
          </mxGeometry>
        </mxCell>
        <mxCell id="t69FuDpfa9cgYGg4j1Pl-21" value="" style="edgeStyle=entityRelationEdgeStyle;fontSize=12;html=1;endArrow=ERoneToMany;startArrow=ERoneToMany;rounded=0;entryX=0;entryY=0.5;entryDx=0;entryDy=0;" edge="1" parent="1" source="v7Xdblkcc-aNvK0DpxJ9-6" target="t69FuDpfa9cgYGg4j1Pl-2">
          <mxGeometry width="100" height="100" relative="1" as="geometry">
            <mxPoint x="280" y="250" as="sourcePoint" />
            <mxPoint x="380" y="150" as="targetPoint" />
          </mxGeometry>
        </mxCell>
        <mxCell id="t69FuDpfa9cgYGg4j1Pl-22" value="" style="edgeStyle=entityRelationEdgeStyle;fontSize=12;html=1;endArrow=ERmany;rounded=0;" edge="1" parent="1" source="7DUqJgxupOhNcwciF-pr-3" target="t69FuDpfa9cgYGg4j1Pl-2">
          <mxGeometry width="100" height="100" relative="1" as="geometry">
            <mxPoint x="280" y="550" as="sourcePoint" />
            <mxPoint x="380" y="450" as="targetPoint" />
          </mxGeometry>
        </mxCell>
        <mxCell id="t69FuDpfa9cgYGg4j1Pl-27" value="" style="edgeStyle=entityRelationEdgeStyle;fontSize=12;html=1;endArrow=ERmany;rounded=0;" edge="1" parent="1" source="JToe3xS23w6gzhWZ4CIW-7" target="t69FuDpfa9cgYGg4j1Pl-15">
          <mxGeometry width="100" height="100" relative="1" as="geometry">
            <mxPoint x="500" y="350" as="sourcePoint" />
            <mxPoint x="600" y="250" as="targetPoint" />
          </mxGeometry>
        </mxCell>
        <mxCell id="t69FuDpfa9cgYGg4j1Pl-29" value="" style="edgeStyle=entityRelationEdgeStyle;fontSize=12;html=1;endArrow=ERmany;startArrow=ERmany;rounded=0;" edge="1" parent="1" source="7DUqJgxupOhNcwciF-pr-19" target="t69FuDpfa9cgYGg4j1Pl-5">
          <mxGeometry width="100" height="100" relative="1" as="geometry">
            <mxPoint x="390" y="600" as="sourcePoint" />
            <mxPoint x="490" y="500" as="targetPoint" />
            <Array as="points">
              <mxPoint x="330" y="480" />
            </Array>
          </mxGeometry>
        </mxCell>
        <mxCell id="t69FuDpfa9cgYGg4j1Pl-30" value="" style="edgeStyle=entityRelationEdgeStyle;fontSize=12;html=1;endArrow=ERmany;startArrow=ERmany;rounded=0;" edge="1" parent="1" source="7DUqJgxupOhNcwciF-pr-18" target="t69FuDpfa9cgYGg4j1Pl-5">
          <mxGeometry width="100" height="100" relative="1" as="geometry">
            <mxPoint x="390" y="600" as="sourcePoint" />
            <mxPoint x="490" y="500" as="targetPoint" />
          </mxGeometry>
        </mxCell>
        <mxCell id="t69FuDpfa9cgYGg4j1Pl-40" value="" style="edgeStyle=entityRelationEdgeStyle;fontSize=12;html=1;endArrow=ERmany;startArrow=ERmany;rounded=0;" edge="1" parent="1" source="7DUqJgxupOhNcwciF-pr-58" target="t69FuDpfa9cgYGg4j1Pl-9">
          <mxGeometry width="100" height="100" relative="1" as="geometry">
            <mxPoint x="-120" y="790" as="sourcePoint" />
            <mxPoint x="500" y="780" as="targetPoint" />
            <Array as="points" />
          </mxGeometry>
        </mxCell>
        <mxCell id="t69FuDpfa9cgYGg4j1Pl-41" value="" style="edgeStyle=entityRelationEdgeStyle;fontSize=12;html=1;endArrow=ERmany;startArrow=ERmany;rounded=0;" edge="1" parent="1" source="7DUqJgxupOhNcwciF-pr-66" target="t69FuDpfa9cgYGg4j1Pl-16">
          <mxGeometry width="100" height="100" relative="1" as="geometry">
            <mxPoint x="400" y="880" as="sourcePoint" />
            <mxPoint x="540" y="920" as="targetPoint" />
          </mxGeometry>
        </mxCell>
        <mxCell id="t69FuDpfa9cgYGg4j1Pl-43" value="" style="edgeStyle=entityRelationEdgeStyle;fontSize=12;html=1;endArrow=ERmany;startArrow=ERmany;rounded=0;" edge="1" parent="1" source="7DUqJgxupOhNcwciF-pr-56" target="t69FuDpfa9cgYGg4j1Pl-12">
          <mxGeometry width="100" height="100" relative="1" as="geometry">
            <mxPoint x="400" y="1030" as="sourcePoint" />
            <mxPoint x="500" y="930" as="targetPoint" />
            <Array as="points" />
          </mxGeometry>
        </mxCell>
        <mxCell id="t69FuDpfa9cgYGg4j1Pl-49" value="" style="edgeStyle=entityRelationEdgeStyle;fontSize=12;html=1;endArrow=ERmany;startArrow=ERmany;rounded=0;" edge="1" parent="1" source="7DUqJgxupOhNcwciF-pr-8" target="t69FuDpfa9cgYGg4j1Pl-10">
          <mxGeometry width="100" height="100" relative="1" as="geometry">
            <mxPoint x="920" y="470" as="sourcePoint" />
            <mxPoint x="1020" y="370" as="targetPoint" />
          </mxGeometry>
        </mxCell>
        <mxCell id="t69FuDpfa9cgYGg4j1Pl-52" value="" style="edgeStyle=entityRelationEdgeStyle;fontSize=12;html=1;endArrow=ERmany;startArrow=ERmany;rounded=0;" edge="1" parent="1" source="7DUqJgxupOhNcwciF-pr-16" target="t69FuDpfa9cgYGg4j1Pl-10">
          <mxGeometry width="100" height="100" relative="1" as="geometry">
            <mxPoint x="280" y="760" as="sourcePoint" />
            <mxPoint x="380" y="660" as="targetPoint" />
          </mxGeometry>
        </mxCell>
        <mxCell id="v7Xdblkcc-aNvK0DpxJ9-5" value="" style="edgeStyle=entityRelationEdgeStyle;fontSize=12;html=1;endArrow=ERoneToMany;startArrow=ERoneToMany;rounded=0;entryX=0;entryY=0.5;entryDx=0;entryDy=0;" edge="1" parent="1" source="t69FuDpfa9cgYGg4j1Pl-1" target="v7Xdblkcc-aNvK0DpxJ9-6">
          <mxGeometry width="100" height="100" relative="1" as="geometry">
            <mxPoint x="260" y="340" as="sourcePoint" />
            <mxPoint x="630" y="340" as="targetPoint" />
          </mxGeometry>
        </mxCell>
        <mxCell id="v7Xdblkcc-aNvK0DpxJ9-6" value="Asignar" style="shape=rhombus;perimeter=rhombusPerimeter;whiteSpace=wrap;html=1;align=center;" vertex="1" parent="1">
          <mxGeometry x="390" y="310" width="120" height="60" as="geometry" />
        </mxCell>
        <mxCell id="JToe3xS23w6gzhWZ4CIW-4" value="" style="edgeStyle=orthogonalEdgeStyle;rounded=0;orthogonalLoop=1;jettySize=auto;html=1;endArrow=none;endFill=0;startArrow=ERmany;startFill=0;" edge="1" parent="1" source="t69FuDpfa9cgYGg4j1Pl-6" target="JToe3xS23w6gzhWZ4CIW-2">
          <mxGeometry relative="1" as="geometry">
            <mxPoint x="370" y="140" as="sourcePoint" />
            <mxPoint x="670" y="320" as="targetPoint" />
          </mxGeometry>
        </mxCell>
        <mxCell id="JToe3xS23w6gzhWZ4CIW-2" value="Realizar" style="shape=rhombus;perimeter=rhombusPerimeter;whiteSpace=wrap;html=1;align=center;" vertex="1" parent="1">
          <mxGeometry x="490" y="180" width="120" height="60" as="geometry" />
        </mxCell>
        <mxCell id="JToe3xS23w6gzhWZ4CIW-5" value="" style="edgeStyle=orthogonalEdgeStyle;rounded=0;orthogonalLoop=1;jettySize=auto;html=1;entryX=0;entryY=0.5;entryDx=0;entryDy=0;exitX=0.625;exitY=0;exitDx=0;exitDy=0;exitPerimeter=0;startArrow=ERmany;startFill=0;endArrow=none;endFill=0;" edge="1" parent="1" source="t69FuDpfa9cgYGg4j1Pl-2" target="JToe3xS23w6gzhWZ4CIW-6">
          <mxGeometry relative="1" as="geometry">
            <mxPoint x="680" y="320" as="sourcePoint" />
            <mxPoint x="870" y="230" as="targetPoint" />
          </mxGeometry>
        </mxCell>
        <mxCell id="JToe3xS23w6gzhWZ4CIW-6" value="Comprar" style="shape=rhombus;perimeter=rhombusPerimeter;whiteSpace=wrap;html=1;align=center;" vertex="1" parent="1">
          <mxGeometry x="690" y="40" width="120" height="60" as="geometry" />
        </mxCell>
        <mxCell id="JToe3xS23w6gzhWZ4CIW-8" value="" style="edgeStyle=entityRelationEdgeStyle;fontSize=12;html=1;endArrow=ERmany;rounded=0;" edge="1" parent="1" source="t69FuDpfa9cgYGg4j1Pl-3" target="JToe3xS23w6gzhWZ4CIW-7">
          <mxGeometry width="100" height="100" relative="1" as="geometry">
            <mxPoint x="1020" y="110" as="sourcePoint" />
            <mxPoint x="1191" y="110" as="targetPoint" />
          </mxGeometry>
        </mxCell>
        <mxCell id="JToe3xS23w6gzhWZ4CIW-7" value="Gestionar" style="shape=rhombus;perimeter=rhombusPerimeter;whiteSpace=wrap;html=1;align=center;" vertex="1" parent="1">
          <mxGeometry x="1121" y="80" width="120" height="60" as="geometry" />
        </mxCell>
        <mxCell id="7DUqJgxupOhNcwciF-pr-2" value="" style="edgeStyle=entityRelationEdgeStyle;fontSize=12;html=1;endArrow=ERmany;rounded=0;" edge="1" parent="1" source="t69FuDpfa9cgYGg4j1Pl-4" target="7DUqJgxupOhNcwciF-pr-3">
          <mxGeometry width="100" height="100" relative="1" as="geometry">
            <mxPoint x="1040" y="340" as="sourcePoint" />
            <mxPoint x="710" y="340" as="targetPoint" />
          </mxGeometry>
        </mxCell>
        <mxCell id="7DUqJgxupOhNcwciF-pr-3" value="Tener" style="shape=rhombus;perimeter=rhombusPerimeter;whiteSpace=wrap;html=1;align=center;" vertex="1" parent="1">
          <mxGeometry x="790" y="310" width="120" height="60" as="geometry" />
        </mxCell>
        <mxCell id="7DUqJgxupOhNcwciF-pr-5" value="" style="edgeStyle=orthogonalEdgeStyle;rounded=0;orthogonalLoop=1;jettySize=auto;html=1;endArrow=ERmany;endFill=0;startArrow=ERmany;startFill=0;" edge="1" parent="1" source="t69FuDpfa9cgYGg4j1Pl-8" target="7DUqJgxupOhNcwciF-pr-6">
          <mxGeometry relative="1" as="geometry">
            <mxPoint x="1410" y="340" as="sourcePoint" />
            <mxPoint x="1140" y="340" as="targetPoint" />
          </mxGeometry>
        </mxCell>
        <mxCell id="7DUqJgxupOhNcwciF-pr-6" value="Hacer" style="shape=rhombus;perimeter=rhombusPerimeter;whiteSpace=wrap;html=1;align=center;" vertex="1" parent="1">
          <mxGeometry x="1210" y="310" width="120" height="60" as="geometry" />
        </mxCell>
        <mxCell id="7DUqJgxupOhNcwciF-pr-7" value="" style="edgeStyle=entityRelationEdgeStyle;fontSize=12;html=1;endArrow=ERmany;startArrow=ERmany;rounded=0;" edge="1" parent="1" source="t69FuDpfa9cgYGg4j1Pl-8" target="7DUqJgxupOhNcwciF-pr-8">
          <mxGeometry width="100" height="100" relative="1" as="geometry">
            <mxPoint x="1510" y="340" as="sourcePoint" />
            <mxPoint x="1500" y="540" as="targetPoint" />
          </mxGeometry>
        </mxCell>
        <mxCell id="7DUqJgxupOhNcwciF-pr-8" value="Asignar" style="shape=rhombus;perimeter=rhombusPerimeter;whiteSpace=wrap;html=1;align=center;" vertex="1" parent="1">
          <mxGeometry x="1534" y="485" width="120" height="60" as="geometry" />
        </mxCell>
        <mxCell id="7DUqJgxupOhNcwciF-pr-9" value="" style="edgeStyle=orthogonalEdgeStyle;rounded=0;orthogonalLoop=1;jettySize=auto;html=1;entryX=0.5;entryY=0;entryDx=0;entryDy=0;endArrow=ERmany;endFill=0;startArrow=ERmany;startFill=0;" edge="1" parent="1" source="t69FuDpfa9cgYGg4j1Pl-2" target="7DUqJgxupOhNcwciF-pr-10">
          <mxGeometry relative="1" as="geometry">
            <mxPoint x="670" y="360" as="sourcePoint" />
            <mxPoint x="670" y="560" as="targetPoint" />
          </mxGeometry>
        </mxCell>
        <mxCell id="7DUqJgxupOhNcwciF-pr-10" value="Crear" style="shape=rhombus;perimeter=rhombusPerimeter;whiteSpace=wrap;html=1;align=center;" vertex="1" parent="1">
          <mxGeometry x="610" y="420" width="120" height="60" as="geometry" />
        </mxCell>
        <mxCell id="7DUqJgxupOhNcwciF-pr-13" value="" style="edgeStyle=orthogonalEdgeStyle;rounded=0;orthogonalLoop=1;jettySize=auto;html=1;startArrow=ERmany;startFill=0;endArrow=none;endFill=0;" edge="1" parent="1" source="t69FuDpfa9cgYGg4j1Pl-9" target="7DUqJgxupOhNcwciF-pr-14">
          <mxGeometry relative="1" as="geometry">
            <mxPoint x="400" y="580" as="sourcePoint" />
            <mxPoint x="1090" y="360" as="targetPoint" />
          </mxGeometry>
        </mxCell>
        <mxCell id="7DUqJgxupOhNcwciF-pr-14" value="Tener" style="shape=rhombus;perimeter=rhombusPerimeter;whiteSpace=wrap;html=1;align=center;" vertex="1" parent="1">
          <mxGeometry x="800" y="505" width="120" height="60" as="geometry" />
        </mxCell>
        <mxCell id="7DUqJgxupOhNcwciF-pr-15" value="" style="edgeStyle=entityRelationEdgeStyle;fontSize=12;html=1;endArrow=ERmany;startArrow=ERmany;rounded=0;exitX=1;exitY=0.75;exitDx=0;exitDy=0;" edge="1" parent="1" source="t69FuDpfa9cgYGg4j1Pl-9" target="7DUqJgxupOhNcwciF-pr-16">
          <mxGeometry width="100" height="100" relative="1" as="geometry">
            <mxPoint x="400" y="590" as="sourcePoint" />
            <mxPoint x="1470" y="585" as="targetPoint" />
          </mxGeometry>
        </mxCell>
        <mxCell id="7DUqJgxupOhNcwciF-pr-16" value="Asignar" style="shape=rhombus;perimeter=rhombusPerimeter;whiteSpace=wrap;html=1;align=center;" vertex="1" parent="1">
          <mxGeometry x="900" y="560" width="120" height="60" as="geometry" />
        </mxCell>
        <mxCell id="7DUqJgxupOhNcwciF-pr-17" value="" style="edgeStyle=entityRelationEdgeStyle;fontSize=12;html=1;endArrow=ERmany;startArrow=ERmany;rounded=0;" edge="1" parent="1" source="t69FuDpfa9cgYGg4j1Pl-9" target="7DUqJgxupOhNcwciF-pr-18">
          <mxGeometry width="100" height="100" relative="1" as="geometry">
            <mxPoint x="330" y="570" as="sourcePoint" />
            <mxPoint x="620" y="640" as="targetPoint" />
          </mxGeometry>
        </mxCell>
        <mxCell id="7DUqJgxupOhNcwciF-pr-18" value="Tener" style="shape=rhombus;perimeter=rhombusPerimeter;whiteSpace=wrap;html=1;align=center;" vertex="1" parent="1">
          <mxGeometry x="420" y="620" width="120" height="60" as="geometry" />
        </mxCell>
        <mxCell id="7DUqJgxupOhNcwciF-pr-20" value="" style="edgeStyle=entityRelationEdgeStyle;fontSize=12;html=1;endArrow=ERmany;startArrow=ERmany;rounded=0;" edge="1" parent="1" source="t69FuDpfa9cgYGg4j1Pl-11" target="7DUqJgxupOhNcwciF-pr-19">
          <mxGeometry width="100" height="100" relative="1" as="geometry">
            <mxPoint x="1050" y="740" as="sourcePoint" />
            <mxPoint x="720" y="640" as="targetPoint" />
            <Array as="points">
              <mxPoint x="340" y="610" />
              <mxPoint x="380" y="470" />
            </Array>
          </mxGeometry>
        </mxCell>
        <mxCell id="7DUqJgxupOhNcwciF-pr-19" value="Tener" style="shape=rhombus;perimeter=rhombusPerimeter;whiteSpace=wrap;html=1;align=center;" vertex="1" parent="1">
          <mxGeometry x="860" y="650" width="120" height="60" as="geometry" />
        </mxCell>
        <mxCell id="7DUqJgxupOhNcwciF-pr-46" value="" style="edgeStyle=orthogonalEdgeStyle;rounded=0;orthogonalLoop=1;jettySize=auto;html=1;exitX=0.5;exitY=1;exitDx=0;exitDy=0;startArrow=ERmany;startFill=0;endArrow=ERmany;endFill=0;" edge="1" parent="1" source="t69FuDpfa9cgYGg4j1Pl-11" target="7DUqJgxupOhNcwciF-pr-47">
          <mxGeometry relative="1" as="geometry">
            <mxPoint x="1100" y="760" as="sourcePoint" />
            <mxPoint x="805" y="910" as="targetPoint" />
          </mxGeometry>
        </mxCell>
        <mxCell id="7DUqJgxupOhNcwciF-pr-47" value="Asignar" style="shape=rhombus;perimeter=rhombusPerimeter;whiteSpace=wrap;html=1;align=center;" vertex="1" parent="1">
          <mxGeometry x="850" y="810" width="120" height="60" as="geometry" />
        </mxCell>
        <mxCell id="7DUqJgxupOhNcwciF-pr-49" value="" style="edgeStyle=orthogonalEdgeStyle;rounded=0;orthogonalLoop=1;jettySize=auto;html=1;exitX=0.25;exitY=1;exitDx=0;exitDy=0;entryX=0;entryY=0.5;entryDx=0;entryDy=0;startArrow=ERmany;startFill=0;endArrow=ERmany;endFill=0;" edge="1" parent="1" source="t69FuDpfa9cgYGg4j1Pl-9" target="7DUqJgxupOhNcwciF-pr-48">
          <mxGeometry relative="1" as="geometry">
            <mxPoint x="660" y="1270" as="targetPoint" />
            <mxPoint x="255" y="590" as="sourcePoint" />
          </mxGeometry>
        </mxCell>
        <mxCell id="7DUqJgxupOhNcwciF-pr-48" value="Asignar" style="shape=rhombus;perimeter=rhombusPerimeter;whiteSpace=wrap;html=1;align=center;" vertex="1" parent="1">
          <mxGeometry x="400" y="1230" width="120" height="60" as="geometry" />
        </mxCell>
        <mxCell id="7DUqJgxupOhNcwciF-pr-51" value="" style="edgeStyle=orthogonalEdgeStyle;rounded=0;orthogonalLoop=1;jettySize=auto;html=1;startArrow=ERmany;startFill=0;endArrow=ERmany;endFill=0;" edge="1" parent="1" source="t69FuDpfa9cgYGg4j1Pl-9" target="7DUqJgxupOhNcwciF-pr-50">
          <mxGeometry relative="1" as="geometry">
            <mxPoint x="280" y="590" as="sourcePoint" />
            <mxPoint x="280" y="1370" as="targetPoint" />
          </mxGeometry>
        </mxCell>
        <mxCell id="7DUqJgxupOhNcwciF-pr-50" value="Generar" style="shape=rhombus;perimeter=rhombusPerimeter;whiteSpace=wrap;html=1;align=center;" vertex="1" parent="1">
          <mxGeometry x="220" y="1100" width="120" height="60" as="geometry" />
        </mxCell>
        <mxCell id="7DUqJgxupOhNcwciF-pr-54" value="" style="edgeStyle=orthogonalEdgeStyle;rounded=0;orthogonalLoop=1;jettySize=auto;html=1;entryX=0.5;entryY=0;entryDx=0;entryDy=0;exitX=1;exitY=1;exitDx=0;exitDy=0;startArrow=ERmany;startFill=0;endArrow=ERmany;endFill=0;" edge="1" parent="1" source="t69FuDpfa9cgYGg4j1Pl-9" target="7DUqJgxupOhNcwciF-pr-53">
          <mxGeometry relative="1" as="geometry">
            <mxPoint x="330" y="590" as="sourcePoint" />
            <mxPoint x="480" y="1350" as="targetPoint" />
          </mxGeometry>
        </mxCell>
        <mxCell id="7DUqJgxupOhNcwciF-pr-53" value="Requerir" style="shape=rhombus;perimeter=rhombusPerimeter;whiteSpace=wrap;html=1;align=center;" vertex="1" parent="1">
          <mxGeometry x="470" y="990" width="120" height="60" as="geometry" />
        </mxCell>
        <mxCell id="7DUqJgxupOhNcwciF-pr-55" value="" style="edgeStyle=entityRelationEdgeStyle;fontSize=12;html=1;endArrow=ERmany;startArrow=ERmany;rounded=0;" edge="1" parent="1" source="t69FuDpfa9cgYGg4j1Pl-14" target="7DUqJgxupOhNcwciF-pr-56">
          <mxGeometry width="100" height="100" relative="1" as="geometry">
            <mxPoint x="480" y="1370" as="sourcePoint" />
            <mxPoint x="-90" y="770" as="targetPoint" />
            <Array as="points">
              <mxPoint x="170" y="990" />
            </Array>
          </mxGeometry>
        </mxCell>
        <mxCell id="7DUqJgxupOhNcwciF-pr-56" value="Requerir" style="shape=rhombus;perimeter=rhombusPerimeter;whiteSpace=wrap;html=1;align=center;" vertex="1" parent="1">
          <mxGeometry x="10" y="1210" width="120" height="60" as="geometry" />
        </mxCell>
        <mxCell id="7DUqJgxupOhNcwciF-pr-57" value="" style="edgeStyle=entityRelationEdgeStyle;fontSize=12;html=1;endArrow=ERmany;startArrow=ERmany;rounded=0;" edge="1" parent="1" source="t69FuDpfa9cgYGg4j1Pl-12" target="7DUqJgxupOhNcwciF-pr-58">
          <mxGeometry width="100" height="100" relative="1" as="geometry">
            <mxPoint x="-90" y="770" as="sourcePoint" />
            <mxPoint x="230" y="570" as="targetPoint" />
            <Array as="points">
              <mxPoint x="-80" y="820" />
            </Array>
          </mxGeometry>
        </mxCell>
        <mxCell id="7DUqJgxupOhNcwciF-pr-58" value="Generar" style="shape=rhombus;perimeter=rhombusPerimeter;whiteSpace=wrap;html=1;align=center;" vertex="1" parent="1">
          <mxGeometry x="20" y="630" width="120" height="60" as="geometry" />
        </mxCell>
        <mxCell id="7DUqJgxupOhNcwciF-pr-62" value="" style="edgeStyle=orthogonalEdgeStyle;rounded=0;orthogonalLoop=1;jettySize=auto;html=1;entryX=0;entryY=1;entryDx=0;entryDy=0;endArrow=none;endFill=0;startArrow=ERmany;startFill=0;" edge="1" parent="1" source="t69FuDpfa9cgYGg4j1Pl-12" target="7DUqJgxupOhNcwciF-pr-61">
          <mxGeometry relative="1" as="geometry">
            <mxPoint x="-140" y="750" as="sourcePoint" />
            <mxPoint x="1040" y="360" as="targetPoint" />
            <Array as="points">
              <mxPoint x="-140" y="400" />
            </Array>
          </mxGeometry>
        </mxCell>
        <mxCell id="7DUqJgxupOhNcwciF-pr-61" value="Tener" style="shape=rhombus;perimeter=rhombusPerimeter;whiteSpace=wrap;html=1;align=center;" vertex="1" parent="1">
          <mxGeometry x="-80" y="370" width="120" height="60" as="geometry" />
        </mxCell>
        <mxCell id="7DUqJgxupOhNcwciF-pr-65" value="" style="edgeStyle=orthogonalEdgeStyle;rounded=0;orthogonalLoop=1;jettySize=auto;html=1;entryX=0.5;entryY=1;entryDx=0;entryDy=0;startArrow=ERmany;startFill=0;endArrow=none;endFill=0;" edge="1" parent="1" source="t69FuDpfa9cgYGg4j1Pl-16" target="7DUqJgxupOhNcwciF-pr-63">
          <mxGeometry relative="1" as="geometry">
            <mxPoint x="1270" y="980" as="sourcePoint" />
            <mxPoint x="1140" y="360" as="targetPoint" />
            <Array as="points">
              <mxPoint x="1270" y="830" />
              <mxPoint x="1270" y="830" />
            </Array>
          </mxGeometry>
        </mxCell>
        <mxCell id="7DUqJgxupOhNcwciF-pr-63" value="Tener" style="shape=rhombus;perimeter=rhombusPerimeter;whiteSpace=wrap;html=1;align=center;" vertex="1" parent="1">
          <mxGeometry x="1210" y="670" width="120" height="60" as="geometry" />
        </mxCell>
        <mxCell id="7DUqJgxupOhNcwciF-pr-67" value="" style="edgeStyle=entityRelationEdgeStyle;fontSize=12;html=1;endArrow=ERmany;startArrow=ERmany;rounded=0;" edge="1" parent="1" target="7DUqJgxupOhNcwciF-pr-66">
          <mxGeometry width="100" height="100" relative="1" as="geometry">
            <mxPoint x="1150" y="735" as="sourcePoint" />
            <mxPoint x="1200" y="895" as="targetPoint" />
          </mxGeometry>
        </mxCell>
        <mxCell id="7DUqJgxupOhNcwciF-pr-66" value="Generan" style="shape=rhombus;perimeter=rhombusPerimeter;whiteSpace=wrap;html=1;align=center;" vertex="1" parent="1">
          <mxGeometry x="1200" y="870" width="120" height="60" as="geometry" />
        </mxCell>
        <mxCell id="7DUqJgxupOhNcwciF-pr-68" value="" style="edgeStyle=orthogonalEdgeStyle;rounded=0;orthogonalLoop=1;jettySize=auto;html=1;entryX=0.5;entryY=1;entryDx=0;entryDy=0;endArrow=none;endFill=0;startArrow=ERmany;startFill=0;" edge="1" parent="1" source="t69FuDpfa9cgYGg4j1Pl-11" target="7DUqJgxupOhNcwciF-pr-69">
          <mxGeometry relative="1" as="geometry">
            <mxPoint x="1100" y="720" as="sourcePoint" />
            <mxPoint x="1065" y="360" as="targetPoint" />
          </mxGeometry>
        </mxCell>
        <mxCell id="7DUqJgxupOhNcwciF-pr-69" value="Tener" style="shape=rhombus;perimeter=rhombusPerimeter;whiteSpace=wrap;html=1;align=center;" vertex="1" parent="1">
          <mxGeometry x="1040" y="540" width="120" height="60" as="geometry" />
        </mxCell>
        <mxCell id="7DUqJgxupOhNcwciF-pr-72" value="" style="edgeStyle=orthogonalEdgeStyle;rounded=0;orthogonalLoop=1;jettySize=auto;html=1;endArrow=none;endFill=0;startArrow=ERmany;startFill=0;entryX=0;entryY=0.5;entryDx=0;entryDy=0;" edge="1" parent="1" source="t69FuDpfa9cgYGg4j1Pl-13" target="7DUqJgxupOhNcwciF-pr-71">
          <mxGeometry relative="1" as="geometry">
            <mxPoint x="330" y="1400" as="sourcePoint" />
            <mxPoint x="1060" y="1330" as="targetPoint" />
            <Array as="points" />
          </mxGeometry>
        </mxCell>
        <mxCell id="7DUqJgxupOhNcwciF-pr-71" value="Tener" style="shape=rhombus;perimeter=rhombusPerimeter;whiteSpace=wrap;html=1;align=center;" vertex="1" parent="1">
          <mxGeometry x="1654" y="1370" width="120" height="60" as="geometry" />
        </mxCell>
        <mxCell id="7DUqJgxupOhNcwciF-pr-77" value="" style="edgeStyle=orthogonalEdgeStyle;rounded=0;orthogonalLoop=1;jettySize=auto;html=1;exitX=1;exitY=0;exitDx=0;exitDy=0;startArrow=ERmany;startFill=0;endArrow=ERmany;endFill=0;" edge="1" parent="1" source="t69FuDpfa9cgYGg4j1Pl-11" target="7DUqJgxupOhNcwciF-pr-76">
          <mxGeometry relative="1" as="geometry">
            <mxPoint x="1150" y="720" as="sourcePoint" />
            <mxPoint x="1460" y="360" as="targetPoint" />
          </mxGeometry>
        </mxCell>
        <mxCell id="7DUqJgxupOhNcwciF-pr-76" value="Realizar" style="shape=rhombus;perimeter=rhombusPerimeter;whiteSpace=wrap;html=1;align=center;" vertex="1" parent="1">
          <mxGeometry x="1260" y="510" width="120" height="60" as="geometry" />
        </mxCell>
        <mxCell id="7DUqJgxupOhNcwciF-pr-80" value="" style="edgeStyle=orthogonalEdgeStyle;rounded=0;orthogonalLoop=1;jettySize=auto;html=1;entryX=0;entryY=0.5;entryDx=0;entryDy=0;exitX=1;exitY=0;exitDx=0;exitDy=0;endArrow=ERmany;endFill=0;startArrow=ERmany;startFill=0;" edge="1" parent="1" source="t69FuDpfa9cgYGg4j1Pl-9" target="7DUqJgxupOhNcwciF-pr-79">
          <mxGeometry relative="1" as="geometry">
            <mxPoint x="280" y="550" as="sourcePoint" />
            <mxPoint x="1485" y="360" as="targetPoint" />
            <Array as="points">
              <mxPoint x="330" y="520" />
              <mxPoint x="360" y="520" />
              <mxPoint x="360" y="480" />
            </Array>
          </mxGeometry>
        </mxCell>
        <mxCell id="7DUqJgxupOhNcwciF-pr-79" value="Realizar" style="shape=rhombus;perimeter=rhombusPerimeter;whiteSpace=wrap;html=1;align=center;" vertex="1" parent="1">
          <mxGeometry x="420" y="450" width="120" height="60" as="geometry" />
        </mxCell>
        <mxCell id="novI5w1kqL9FpV3VyfAw-1" value="IdAfiliacion" style="ellipse;whiteSpace=wrap;html=1;align=center;dashed=1;" vertex="1" parent="1">
          <mxGeometry x="880" y="10" width="100" height="40" as="geometry" />
        </mxCell>
        <mxCell id="novI5w1kqL9FpV3VyfAw-2" value="NumeroDocCotizante" style="ellipse;whiteSpace=wrap;html=1;align=center;" vertex="1" parent="1">
          <mxGeometry x="950" y="-40" width="130" height="60" as="geometry" />
        </mxCell>
        <mxCell id="novI5w1kqL9FpV3VyfAw-4" value="NumeroBeneficiarios" style="ellipse;whiteSpace=wrap;html=1;align=center;" vertex="1" parent="1">
          <mxGeometry x="1080" y="-30" width="130" height="60" as="geometry" />
        </mxCell>
        <mxCell id="novI5w1kqL9FpV3VyfAw-5" value="" style="endArrow=none;html=1;rounded=0;" edge="1" parent="1" source="novI5w1kqL9FpV3VyfAw-1" target="t69FuDpfa9cgYGg4j1Pl-3">
          <mxGeometry relative="1" as="geometry">
            <mxPoint x="1100" y="160" as="sourcePoint" />
            <mxPoint x="1260" y="160" as="targetPoint" />
          </mxGeometry>
        </mxCell>
        <mxCell id="novI5w1kqL9FpV3VyfAw-8" value="" style="endArrow=none;html=1;rounded=0;" edge="1" parent="1" source="novI5w1kqL9FpV3VyfAw-2" target="t69FuDpfa9cgYGg4j1Pl-3">
          <mxGeometry relative="1" as="geometry">
            <mxPoint x="1100" y="160" as="sourcePoint" />
            <mxPoint x="1260" y="160" as="targetPoint" />
          </mxGeometry>
        </mxCell>
        <mxCell id="novI5w1kqL9FpV3VyfAw-9" value="" style="endArrow=none;html=1;rounded=0;" edge="1" parent="1" source="novI5w1kqL9FpV3VyfAw-4" target="t69FuDpfa9cgYGg4j1Pl-3">
          <mxGeometry relative="1" as="geometry">
            <mxPoint x="1100" y="160" as="sourcePoint" />
            <mxPoint x="1260" y="160" as="targetPoint" />
          </mxGeometry>
        </mxCell>
        <mxCell id="novI5w1kqL9FpV3VyfAw-10" value="idResgistro" style="ellipse;whiteSpace=wrap;html=1;align=center;dashed=1;" vertex="1" parent="1">
          <mxGeometry x="690" y="230" width="100" height="40" as="geometry" />
        </mxCell>
        <mxCell id="novI5w1kqL9FpV3VyfAw-11" value="Tipo_doc" style="ellipse;whiteSpace=wrap;html=1;align=center;" vertex="1" parent="1">
          <mxGeometry x="660" y="160" width="100" height="40" as="geometry" />
        </mxCell>
        <mxCell id="novI5w1kqL9FpV3VyfAw-12" value="Num_doc" style="ellipse;whiteSpace=wrap;html=1;align=center;" vertex="1" parent="1">
          <mxGeometry x="800" y="210" width="100" height="40" as="geometry" />
        </mxCell>
        <mxCell id="novI5w1kqL9FpV3VyfAw-14" value="" style="endArrow=none;html=1;rounded=0;" edge="1" parent="1" source="t69FuDpfa9cgYGg4j1Pl-2" target="novI5w1kqL9FpV3VyfAw-12">
          <mxGeometry relative="1" as="geometry">
            <mxPoint x="660" y="310" as="sourcePoint" />
            <mxPoint x="820" y="310" as="targetPoint" />
          </mxGeometry>
        </mxCell>
        <mxCell id="novI5w1kqL9FpV3VyfAw-15" value="" style="endArrow=none;html=1;rounded=0;" edge="1" parent="1" target="novI5w1kqL9FpV3VyfAw-10">
          <mxGeometry relative="1" as="geometry">
            <mxPoint x="660" y="319.31" as="sourcePoint" />
            <mxPoint x="820" y="319.31" as="targetPoint" />
          </mxGeometry>
        </mxCell>
        <mxCell id="novI5w1kqL9FpV3VyfAw-16" value="" style="endArrow=none;html=1;rounded=0;exitX=0.615;exitY=-0.02;exitDx=0;exitDy=0;exitPerimeter=0;" edge="1" parent="1" source="t69FuDpfa9cgYGg4j1Pl-2">
          <mxGeometry relative="1" as="geometry">
            <mxPoint x="660" y="309.31" as="sourcePoint" />
            <mxPoint x="700" y="200" as="targetPoint" />
          </mxGeometry>
        </mxCell>
        <mxCell id="novI5w1kqL9FpV3VyfAw-17" value="ID_Doc" style="ellipse;whiteSpace=wrap;html=1;align=center;dashed=1;" vertex="1" parent="1">
          <mxGeometry x="1400" y="200" width="100" height="40" as="geometry" />
        </mxCell>
        <mxCell id="novI5w1kqL9FpV3VyfAw-18" value="Especialidad" style="ellipse;whiteSpace=wrap;html=1;align=center;" vertex="1" parent="1">
          <mxGeometry x="1330" y="250" width="100" height="40" as="geometry" />
        </mxCell>
        <mxCell id="novI5w1kqL9FpV3VyfAw-19" value="NombresDoc" style="ellipse;whiteSpace=wrap;html=1;align=center;" vertex="1" parent="1">
          <mxGeometry x="1490" y="250" width="100" height="40" as="geometry" />
        </mxCell>
        <mxCell id="novI5w1kqL9FpV3VyfAw-20" value="" style="endArrow=none;html=1;rounded=0;" edge="1" parent="1" source="novI5w1kqL9FpV3VyfAw-17" target="t69FuDpfa9cgYGg4j1Pl-8">
          <mxGeometry relative="1" as="geometry">
            <mxPoint x="1374" y="300" as="sourcePoint" />
            <mxPoint x="1534" y="300" as="targetPoint" />
          </mxGeometry>
        </mxCell>
        <mxCell id="novI5w1kqL9FpV3VyfAw-21" value="" style="endArrow=none;html=1;rounded=0;entryX=0.457;entryY=1.023;entryDx=0;entryDy=0;entryPerimeter=0;exitX=0.75;exitY=0;exitDx=0;exitDy=0;" edge="1" parent="1" source="t69FuDpfa9cgYGg4j1Pl-8" target="novI5w1kqL9FpV3VyfAw-19">
          <mxGeometry relative="1" as="geometry">
            <mxPoint x="1480" y="309.31" as="sourcePoint" />
            <mxPoint x="1640" y="309.31" as="targetPoint" />
          </mxGeometry>
        </mxCell>
        <mxCell id="novI5w1kqL9FpV3VyfAw-22" value="" style="endArrow=none;html=1;rounded=0;entryX=0.319;entryY=-0.02;entryDx=0;entryDy=0;entryPerimeter=0;" edge="1" parent="1" source="novI5w1kqL9FpV3VyfAw-18" target="t69FuDpfa9cgYGg4j1Pl-8">
          <mxGeometry relative="1" as="geometry">
            <mxPoint x="1300" y="309.31" as="sourcePoint" />
            <mxPoint x="1460" y="309.31" as="targetPoint" />
          </mxGeometry>
        </mxCell>
        <mxCell id="novI5w1kqL9FpV3VyfAw-23" value="Documento" style="ellipse;whiteSpace=wrap;html=1;align=center;dashed=1;" vertex="1" parent="1">
          <mxGeometry x="1050" y="200" width="100" height="40" as="geometry" />
        </mxCell>
        <mxCell id="novI5w1kqL9FpV3VyfAw-24" value="Nombre" style="ellipse;whiteSpace=wrap;html=1;align=center;" vertex="1" parent="1">
          <mxGeometry x="1131" y="240" width="100" height="40" as="geometry" />
        </mxCell>
        <mxCell id="novI5w1kqL9FpV3VyfAw-25" value="GENERO" style="ellipse;whiteSpace=wrap;html=1;align=center;" vertex="1" parent="1">
          <mxGeometry x="990" y="250" width="100" height="40" as="geometry" />
        </mxCell>
        <mxCell id="novI5w1kqL9FpV3VyfAw-26" value="" style="endArrow=none;html=1;rounded=0;entryX=0.5;entryY=1;entryDx=0;entryDy=0;" edge="1" parent="1" source="t69FuDpfa9cgYGg4j1Pl-4" target="novI5w1kqL9FpV3VyfAw-24">
          <mxGeometry relative="1" as="geometry">
            <mxPoint x="1080" y="300" as="sourcePoint" />
            <mxPoint x="1240" y="300" as="targetPoint" />
          </mxGeometry>
        </mxCell>
        <mxCell id="novI5w1kqL9FpV3VyfAw-27" value="" style="endArrow=none;html=1;rounded=0;exitX=0.5;exitY=0;exitDx=0;exitDy=0;" edge="1" parent="1" source="t69FuDpfa9cgYGg4j1Pl-4" target="novI5w1kqL9FpV3VyfAw-25">
          <mxGeometry relative="1" as="geometry">
            <mxPoint x="1080" y="300" as="sourcePoint" />
            <mxPoint x="1240" y="300" as="targetPoint" />
          </mxGeometry>
        </mxCell>
        <mxCell id="novI5w1kqL9FpV3VyfAw-28" value="" style="endArrow=none;html=1;rounded=0;" edge="1" parent="1" source="novI5w1kqL9FpV3VyfAw-23" target="t69FuDpfa9cgYGg4j1Pl-4">
          <mxGeometry relative="1" as="geometry">
            <mxPoint x="1080" y="300" as="sourcePoint" />
            <mxPoint x="1240" y="300" as="targetPoint" />
          </mxGeometry>
        </mxCell>
        <mxCell id="novI5w1kqL9FpV3VyfAw-29" value="IDcitas" style="ellipse;whiteSpace=wrap;html=1;align=center;dashed=1;" vertex="1" parent="1">
          <mxGeometry x="190" y="430" width="100" height="40" as="geometry" />
        </mxCell>
        <mxCell id="novI5w1kqL9FpV3VyfAw-30" value="Hora" style="ellipse;whiteSpace=wrap;html=1;align=center;" vertex="1" parent="1">
          <mxGeometry x="120" y="485" width="100" height="40" as="geometry" />
        </mxCell>
        <mxCell id="novI5w1kqL9FpV3VyfAw-31" value="Fecha" style="ellipse;whiteSpace=wrap;html=1;align=center;" vertex="1" parent="1">
          <mxGeometry x="260" y="470" width="100" height="40" as="geometry" />
        </mxCell>
        <mxCell id="novI5w1kqL9FpV3VyfAw-32" value="" style="endArrow=none;html=1;rounded=0;" edge="1" parent="1" target="t69FuDpfa9cgYGg4j1Pl-9">
          <mxGeometry relative="1" as="geometry">
            <mxPoint x="170" y="525" as="sourcePoint" />
            <mxPoint x="330" y="525" as="targetPoint" />
          </mxGeometry>
        </mxCell>
        <mxCell id="novI5w1kqL9FpV3VyfAw-33" value="" style="endArrow=none;html=1;rounded=0;" edge="1" parent="1" target="t69FuDpfa9cgYGg4j1Pl-9">
          <mxGeometry relative="1" as="geometry">
            <mxPoint x="240" y="469.31" as="sourcePoint" />
            <mxPoint x="400" y="469.31" as="targetPoint" />
          </mxGeometry>
        </mxCell>
        <mxCell id="novI5w1kqL9FpV3VyfAw-34" value="" style="endArrow=none;html=1;rounded=0;" edge="1" parent="1" target="t69FuDpfa9cgYGg4j1Pl-9">
          <mxGeometry relative="1" as="geometry">
            <mxPoint x="290" y="510" as="sourcePoint" />
            <mxPoint x="450" y="510" as="targetPoint" />
          </mxGeometry>
        </mxCell>
        <mxCell id="novI5w1kqL9FpV3VyfAw-35" value="idResultados" style="ellipse;whiteSpace=wrap;html=1;align=center;dashed=1;" vertex="1" parent="1">
          <mxGeometry x="1320" y="1110" width="100" height="40" as="geometry" />
        </mxCell>
        <mxCell id="novI5w1kqL9FpV3VyfAw-36" value="DocPacientes" style="ellipse;whiteSpace=wrap;html=1;align=center;" vertex="1" parent="1">
          <mxGeometry x="1160" y="1120" width="100" height="40" as="geometry" />
        </mxCell>
        <mxCell id="novI5w1kqL9FpV3VyfAw-37" value="" style="endArrow=none;html=1;rounded=0;" edge="1" parent="1" target="t69FuDpfa9cgYGg4j1Pl-16">
          <mxGeometry relative="1" as="geometry">
            <mxPoint x="1200" y="1119.31" as="sourcePoint" />
            <mxPoint x="1360" y="1119.31" as="targetPoint" />
          </mxGeometry>
        </mxCell>
        <mxCell id="novI5w1kqL9FpV3VyfAw-38" value="" style="endArrow=none;html=1;rounded=0;" edge="1" parent="1" target="novI5w1kqL9FpV3VyfAw-35">
          <mxGeometry relative="1" as="geometry">
            <mxPoint x="1260" y="1080" as="sourcePoint" />
            <mxPoint x="1420" y="1080" as="targetPoint" />
          </mxGeometry>
        </mxCell>
        <mxCell id="novI5w1kqL9FpV3VyfAw-39" value="Ref_pgo" style="ellipse;whiteSpace=wrap;html=1;align=center;dashed=1;" vertex="1" parent="1">
          <mxGeometry x="560" y="1290" width="100" height="40" as="geometry" />
        </mxCell>
        <mxCell id="novI5w1kqL9FpV3VyfAw-40" value="Servicios" style="ellipse;whiteSpace=wrap;html=1;align=center;" vertex="1" parent="1">
          <mxGeometry x="645" y="1320" width="100" height="40" as="geometry" />
        </mxCell>
        <mxCell id="novI5w1kqL9FpV3VyfAw-41" value="Fecha" style="ellipse;whiteSpace=wrap;html=1;align=center;" vertex="1" parent="1">
          <mxGeometry x="610" y="1360" width="100" height="40" as="geometry" />
        </mxCell>
        <mxCell id="novI5w1kqL9FpV3VyfAw-42" value="" style="endArrow=none;html=1;rounded=0;" edge="1" parent="1" source="t69FuDpfa9cgYGg4j1Pl-14" target="novI5w1kqL9FpV3VyfAw-40">
          <mxGeometry relative="1" as="geometry">
            <mxPoint x="580" y="1330" as="sourcePoint" />
            <mxPoint x="640" y="1350" as="targetPoint" />
          </mxGeometry>
        </mxCell>
        <mxCell id="novI5w1kqL9FpV3VyfAw-43" value="" style="endArrow=none;html=1;rounded=0;" edge="1" parent="1" source="t69FuDpfa9cgYGg4j1Pl-14" target="novI5w1kqL9FpV3VyfAw-39">
          <mxGeometry relative="1" as="geometry">
            <mxPoint x="580" y="1330" as="sourcePoint" />
            <mxPoint x="740" y="1330" as="targetPoint" />
          </mxGeometry>
        </mxCell>
        <mxCell id="novI5w1kqL9FpV3VyfAw-44" value="" style="endArrow=none;html=1;rounded=0;exitX=1;exitY=0.25;exitDx=0;exitDy=0;" edge="1" parent="1" source="t69FuDpfa9cgYGg4j1Pl-14" target="novI5w1kqL9FpV3VyfAw-41">
          <mxGeometry relative="1" as="geometry">
            <mxPoint x="580" y="1330" as="sourcePoint" />
            <mxPoint x="740" y="1330" as="targetPoint" />
          </mxGeometry>
        </mxCell>
        <mxCell id="novI5w1kqL9FpV3VyfAw-45" value="idAutorizaciones" style="ellipse;whiteSpace=wrap;html=1;align=center;dashed=1;" vertex="1" parent="1">
          <mxGeometry x="290" y="1470" width="100" height="40" as="geometry" />
        </mxCell>
        <mxCell id="novI5w1kqL9FpV3VyfAw-46" value="DocPacientes" style="ellipse;whiteSpace=wrap;html=1;align=center;" vertex="1" parent="1">
          <mxGeometry x="360" y="1420" width="100" height="40" as="geometry" />
        </mxCell>
        <mxCell id="novI5w1kqL9FpV3VyfAw-47" value="DocDoctor" style="ellipse;whiteSpace=wrap;html=1;align=center;" vertex="1" parent="1">
          <mxGeometry x="170" y="1450" width="100" height="40" as="geometry" />
        </mxCell>
        <mxCell id="novI5w1kqL9FpV3VyfAw-48" value="" style="endArrow=none;html=1;rounded=0;" edge="1" parent="1" target="novI5w1kqL9FpV3VyfAw-46">
          <mxGeometry relative="1" as="geometry">
            <mxPoint x="254" y="1419.31" as="sourcePoint" />
            <mxPoint x="414" y="1419.31" as="targetPoint" />
          </mxGeometry>
        </mxCell>
        <mxCell id="novI5w1kqL9FpV3VyfAw-49" value="" style="endArrow=none;html=1;rounded=0;" edge="1" parent="1">
          <mxGeometry relative="1" as="geometry">
            <mxPoint x="254" y="1419.31" as="sourcePoint" />
            <mxPoint x="340" y="1470" as="targetPoint" />
          </mxGeometry>
        </mxCell>
        <mxCell id="novI5w1kqL9FpV3VyfAw-50" value="" style="endArrow=none;html=1;rounded=0;" edge="1" parent="1" target="t69FuDpfa9cgYGg4j1Pl-13">
          <mxGeometry relative="1" as="geometry">
            <mxPoint x="220" y="1450" as="sourcePoint" />
            <mxPoint x="380" y="1450" as="targetPoint" />
          </mxGeometry>
        </mxCell>
        <mxCell id="novI5w1kqL9FpV3VyfAw-53" value="idExamenes" style="ellipse;whiteSpace=wrap;html=1;align=center;dashed=1;" vertex="1" parent="1">
          <mxGeometry x="1180" y="795" width="90" height="30" as="geometry" />
        </mxCell>
        <mxCell id="novI5w1kqL9FpV3VyfAw-54" value="Tipo_examenes" style="ellipse;whiteSpace=wrap;html=1;align=center;" vertex="1" parent="1">
          <mxGeometry x="970" y="795" width="100" height="40" as="geometry" />
        </mxCell>
        <mxCell id="novI5w1kqL9FpV3VyfAw-55" value="Hora" style="ellipse;whiteSpace=wrap;html=1;align=center;" vertex="1" parent="1">
          <mxGeometry x="1080" y="800" width="100" height="40" as="geometry" />
        </mxCell>
        <mxCell id="novI5w1kqL9FpV3VyfAw-56" value="" style="endArrow=none;html=1;rounded=0;" edge="1" parent="1" source="novI5w1kqL9FpV3VyfAw-54">
          <mxGeometry relative="1" as="geometry">
            <mxPoint x="940" y="760" as="sourcePoint" />
            <mxPoint x="1100" y="760" as="targetPoint" />
          </mxGeometry>
        </mxCell>
        <mxCell id="novI5w1kqL9FpV3VyfAw-57" value="" style="endArrow=none;html=1;rounded=0;" edge="1" parent="1" target="novI5w1kqL9FpV3VyfAw-55">
          <mxGeometry relative="1" as="geometry">
            <mxPoint x="1100" y="760" as="sourcePoint" />
            <mxPoint x="1260" y="760" as="targetPoint" />
          </mxGeometry>
        </mxCell>
        <mxCell id="novI5w1kqL9FpV3VyfAw-58" value="" style="endArrow=none;html=1;rounded=0;exitX=0.5;exitY=1;exitDx=0;exitDy=0;" edge="1" parent="1" source="t69FuDpfa9cgYGg4j1Pl-11" target="novI5w1kqL9FpV3VyfAw-53">
          <mxGeometry relative="1" as="geometry">
            <mxPoint x="1060" y="780" as="sourcePoint" />
            <mxPoint x="1220" y="780" as="targetPoint" />
          </mxGeometry>
        </mxCell>
        <mxCell id="novI5w1kqL9FpV3VyfAw-59" value="idCategoriaExamen" style="ellipse;whiteSpace=wrap;html=1;align=center;dashed=1;" vertex="1" parent="1">
          <mxGeometry x="800" y="980" width="110" height="40" as="geometry" />
        </mxCell>
        <mxCell id="novI5w1kqL9FpV3VyfAw-60" value="CategoriaExamen" style="ellipse;whiteSpace=wrap;html=1;align=center;" vertex="1" parent="1">
          <mxGeometry x="670" y="970" width="100" height="40" as="geometry" />
        </mxCell>
        <mxCell id="novI5w1kqL9FpV3VyfAw-63" value="" style="endArrow=none;html=1;rounded=0;" edge="1" parent="1" target="novI5w1kqL9FpV3VyfAw-59">
          <mxGeometry relative="1" as="geometry">
            <mxPoint x="800" y="950" as="sourcePoint" />
            <mxPoint x="940" y="939.66" as="targetPoint" />
          </mxGeometry>
        </mxCell>
        <mxCell id="novI5w1kqL9FpV3VyfAw-64" value="" style="endArrow=none;html=1;rounded=0;exitX=0.43;exitY=-0.011;exitDx=0;exitDy=0;exitPerimeter=0;" edge="1" parent="1" source="novI5w1kqL9FpV3VyfAw-60" target="t69FuDpfa9cgYGg4j1Pl-19">
          <mxGeometry relative="1" as="geometry">
            <mxPoint x="710" y="950" as="sourcePoint" />
            <mxPoint x="870" y="949.31" as="targetPoint" />
            <Array as="points">
              <mxPoint x="790" y="970" />
            </Array>
          </mxGeometry>
        </mxCell>
        <mxCell id="novI5w1kqL9FpV3VyfAw-75" value="idPagoAf" style="ellipse;whiteSpace=wrap;html=1;align=center;dashed=1;" vertex="1" parent="1">
          <mxGeometry x="1370" y="-10" width="100" height="40" as="geometry" />
        </mxCell>
        <mxCell id="novI5w1kqL9FpV3VyfAw-76" value="Valor" style="ellipse;whiteSpace=wrap;html=1;align=center;" vertex="1" parent="1">
          <mxGeometry x="1490" y="40" width="100" height="40" as="geometry" />
        </mxCell>
        <mxCell id="novI5w1kqL9FpV3VyfAw-77" value="Servicio" style="ellipse;whiteSpace=wrap;html=1;align=center;" vertex="1" parent="1">
          <mxGeometry x="1280" y="40" width="100" height="40" as="geometry" />
        </mxCell>
        <mxCell id="novI5w1kqL9FpV3VyfAw-78" value="" style="endArrow=none;html=1;rounded=0;" edge="1" parent="1" source="t69FuDpfa9cgYGg4j1Pl-15">
          <mxGeometry relative="1" as="geometry">
            <mxPoint x="1280" y="29.31" as="sourcePoint" />
            <mxPoint x="1440" y="29.31" as="targetPoint" />
          </mxGeometry>
        </mxCell>
        <mxCell id="novI5w1kqL9FpV3VyfAw-79" value="" style="endArrow=none;html=1;rounded=0;" edge="1" parent="1" source="novI5w1kqL9FpV3VyfAw-77">
          <mxGeometry relative="1" as="geometry">
            <mxPoint x="1270" y="29.31" as="sourcePoint" />
            <mxPoint x="1430" y="29.31" as="targetPoint" />
          </mxGeometry>
        </mxCell>
        <mxCell id="novI5w1kqL9FpV3VyfAw-80" value="" style="endArrow=none;html=1;rounded=0;" edge="1" parent="1" target="novI5w1kqL9FpV3VyfAw-76">
          <mxGeometry relative="1" as="geometry">
            <mxPoint x="1440" y="29.31" as="sourcePoint" />
            <mxPoint x="1600" y="29.31" as="targetPoint" />
          </mxGeometry>
        </mxCell>
        <mxCell id="novI5w1kqL9FpV3VyfAw-81" value="NumConsutorio" style="ellipse;whiteSpace=wrap;html=1;align=center;dashed=1;" vertex="1" parent="1">
          <mxGeometry x="1544" y="640" width="100" height="40" as="geometry" />
        </mxCell>
        <mxCell id="novI5w1kqL9FpV3VyfAw-82" value="Piso" style="ellipse;whiteSpace=wrap;html=1;align=center;" vertex="1" parent="1">
          <mxGeometry x="1400" y="640" width="100" height="40" as="geometry" />
        </mxCell>
        <mxCell id="novI5w1kqL9FpV3VyfAw-83" value="" style="endArrow=none;html=1;rounded=0;" edge="1" parent="1" source="novI5w1kqL9FpV3VyfAw-82">
          <mxGeometry relative="1" as="geometry">
            <mxPoint x="1380" y="605" as="sourcePoint" />
            <mxPoint x="1540" y="605" as="targetPoint" />
          </mxGeometry>
        </mxCell>
        <mxCell id="novI5w1kqL9FpV3VyfAw-86" value="" style="endArrow=none;html=1;rounded=0;" edge="1" parent="1" target="novI5w1kqL9FpV3VyfAw-81">
          <mxGeometry relative="1" as="geometry">
            <mxPoint x="1534" y="605" as="sourcePoint" />
            <mxPoint x="1694" y="605" as="targetPoint" />
          </mxGeometry>
        </mxCell>
        <mxCell id="novI5w1kqL9FpV3VyfAw-87" value="idReceta" style="ellipse;whiteSpace=wrap;html=1;align=center;dashed=1;" vertex="1" parent="1">
          <mxGeometry x="-200" y="820" width="100" height="40" as="geometry" />
        </mxCell>
        <mxCell id="novI5w1kqL9FpV3VyfAw-88" value="Tipo_Entrega" style="ellipse;whiteSpace=wrap;html=1;align=center;" vertex="1" parent="1">
          <mxGeometry x="-350" y="740" width="100" height="40" as="geometry" />
        </mxCell>
        <mxCell id="novI5w1kqL9FpV3VyfAw-89" value="Dirreccion" style="ellipse;whiteSpace=wrap;html=1;align=center;" vertex="1" parent="1">
          <mxGeometry x="-330" y="800" width="100" height="40" as="geometry" />
        </mxCell>
        <mxCell id="novI5w1kqL9FpV3VyfAw-90" value="" style="endArrow=none;html=1;rounded=0;" edge="1" parent="1" target="t69FuDpfa9cgYGg4j1Pl-12">
          <mxGeometry relative="1" as="geometry">
            <mxPoint x="-250" y="760" as="sourcePoint" />
            <mxPoint x="-90" y="760" as="targetPoint" />
          </mxGeometry>
        </mxCell>
        <mxCell id="novI5w1kqL9FpV3VyfAw-91" value="" style="endArrow=none;html=1;rounded=0;entryX=0.5;entryY=1;entryDx=0;entryDy=0;" edge="1" parent="1" target="t69FuDpfa9cgYGg4j1Pl-12">
          <mxGeometry relative="1" as="geometry">
            <mxPoint x="-230" y="819.31" as="sourcePoint" />
            <mxPoint x="-70" y="819.31" as="targetPoint" />
          </mxGeometry>
        </mxCell>
        <mxCell id="novI5w1kqL9FpV3VyfAw-92" value="" style="endArrow=none;html=1;rounded=0;" edge="1" parent="1">
          <mxGeometry relative="1" as="geometry">
            <mxPoint x="-160" y="819.31" as="sourcePoint" />
            <mxPoint x="-110" y="800" as="targetPoint" />
            <Array as="points">
              <mxPoint x="-130" y="780" />
              <mxPoint x="-130" y="790" />
            </Array>
          </mxGeometry>
        </mxCell>
        <mxCell id="k-lAL7GCRfudDe_dbAZE-1" value="&lt;font style=&quot;vertical-align: inherit;&quot;&gt;&lt;font style=&quot;vertical-align: inherit;&quot;&gt;IdRol&lt;/font&gt;&lt;/font&gt;" style="ellipse;whiteSpace=wrap;html=1;align=center;dashed=1;" vertex="1" parent="1">
          <mxGeometry x="80" y="210" width="100" height="40" as="geometry" />
        </mxCell>
        <mxCell id="k-lAL7GCRfudDe_dbAZE-2" value="&lt;font style=&quot;vertical-align: inherit;&quot;&gt;&lt;font style=&quot;vertical-align: inherit;&quot;&gt;Rol&lt;/font&gt;&lt;/font&gt;" style="ellipse;whiteSpace=wrap;html=1;align=center;" vertex="1" parent="1">
          <mxGeometry x="10" y="270" width="100" height="40" as="geometry" />
        </mxCell>
        <mxCell id="k-lAL7GCRfudDe_dbAZE-12" value="" style="endArrow=none;html=1;rounded=0;entryX=0.5;entryY=0;entryDx=0;entryDy=0;" edge="1" parent="1" source="k-lAL7GCRfudDe_dbAZE-1" target="t69FuDpfa9cgYGg4j1Pl-1">
          <mxGeometry relative="1" as="geometry">
            <mxPoint x="60" y="310" as="sourcePoint" />
            <mxPoint x="220" y="310" as="targetPoint" />
          </mxGeometry>
        </mxCell>
        <mxCell id="k-lAL7GCRfudDe_dbAZE-13" value="1" style="resizable=0;html=1;whiteSpace=wrap;align=right;verticalAlign=bottom;" connectable="0" vertex="1" parent="k-lAL7GCRfudDe_dbAZE-12">
          <mxGeometry x="1" relative="1" as="geometry" />
        </mxCell>
        <mxCell id="k-lAL7GCRfudDe_dbAZE-14" value="" style="endArrow=none;html=1;rounded=0;entryX=0.425;entryY=0;entryDx=0;entryDy=0;entryPerimeter=0;" edge="1" parent="1" target="t69FuDpfa9cgYGg4j1Pl-1">
          <mxGeometry relative="1" as="geometry">
            <mxPoint x="70" y="309" as="sourcePoint" />
            <mxPoint x="230" y="309" as="targetPoint" />
          </mxGeometry>
        </mxCell>
        <mxCell id="k-lAL7GCRfudDe_dbAZE-15" value="1" style="resizable=0;html=1;whiteSpace=wrap;align=right;verticalAlign=bottom;" connectable="0" vertex="1" parent="k-lAL7GCRfudDe_dbAZE-14">
          <mxGeometry x="1" relative="1" as="geometry" />
        </mxCell>
        <mxCell id="k-lAL7GCRfudDe_dbAZE-17" value="&lt;font style=&quot;vertical-align: inherit;&quot;&gt;&lt;font style=&quot;vertical-align: inherit;&quot;&gt;Imagen&lt;/font&gt;&lt;/font&gt;" style="ellipse;whiteSpace=wrap;html=1;align=center;" vertex="1" parent="1">
          <mxGeometry x="120" y="70" width="100" height="40" as="geometry" />
        </mxCell>
        <mxCell id="k-lAL7GCRfudDe_dbAZE-18" value="&lt;font style=&quot;vertical-align: inherit;&quot;&gt;&lt;font style=&quot;vertical-align: inherit;&quot;&gt;FechaCreacion&lt;/font&gt;&lt;/font&gt;" style="ellipse;whiteSpace=wrap;html=1;align=center;" vertex="1" parent="1">
          <mxGeometry x="380" y="80" width="100" height="40" as="geometry" />
        </mxCell>
        <mxCell id="k-lAL7GCRfudDe_dbAZE-19" value="" style="endArrow=none;html=1;rounded=0;" edge="1" parent="1" target="k-lAL7GCRfudDe_dbAZE-18">
          <mxGeometry relative="1" as="geometry">
            <mxPoint x="270" y="190" as="sourcePoint" />
            <mxPoint x="430" y="190" as="targetPoint" />
          </mxGeometry>
        </mxCell>
        <mxCell id="k-lAL7GCRfudDe_dbAZE-20" value="1" style="resizable=0;html=1;whiteSpace=wrap;align=right;verticalAlign=bottom;" connectable="0" vertex="1" parent="k-lAL7GCRfudDe_dbAZE-19">
          <mxGeometry x="1" relative="1" as="geometry" />
        </mxCell>
        <mxCell id="k-lAL7GCRfudDe_dbAZE-21" value="" style="endArrow=none;html=1;rounded=0;" edge="1" parent="1" target="t69FuDpfa9cgYGg4j1Pl-6">
          <mxGeometry relative="1" as="geometry">
            <mxPoint x="170" y="109" as="sourcePoint" />
            <mxPoint x="330" y="109" as="targetPoint" />
          </mxGeometry>
        </mxCell>
        <mxCell id="k-lAL7GCRfudDe_dbAZE-22" value="1" style="resizable=0;html=1;whiteSpace=wrap;align=right;verticalAlign=bottom;" connectable="0" vertex="1" parent="k-lAL7GCRfudDe_dbAZE-21">
          <mxGeometry x="1" relative="1" as="geometry" />
        </mxCell>
        <mxCell id="k-lAL7GCRfudDe_dbAZE-23" value="" style="endArrow=none;html=1;rounded=0;" edge="1" parent="1">
          <mxGeometry relative="1" as="geometry">
            <mxPoint x="254" y="189" as="sourcePoint" />
            <mxPoint x="290.86353336431057" y="109.66326515072342" as="targetPoint" />
          </mxGeometry>
        </mxCell>
        <mxCell id="k-lAL7GCRfudDe_dbAZE-25" value="&lt;font style=&quot;vertical-align: inherit;&quot;&gt;&lt;font style=&quot;vertical-align: inherit;&quot;&gt;IdPublicacion&lt;/font&gt;&lt;/font&gt;" style="ellipse;whiteSpace=wrap;html=1;align=center;dashed=1;" vertex="1" parent="1">
          <mxGeometry x="250" y="70" width="100" height="40" as="geometry" />
        </mxCell>
        <mxCell id="k-lAL7GCRfudDe_dbAZE-26" value="Idsolicitudes" style="ellipse;whiteSpace=wrap;html=1;align=center;dashed=1;" vertex="1" parent="1">
          <mxGeometry x="660" y="710" width="80" height="30" as="geometry" />
        </mxCell>
        <mxCell id="k-lAL7GCRfudDe_dbAZE-27" value="Fecha_solicitud" style="ellipse;whiteSpace=wrap;html=1;align=center;" vertex="1" parent="1">
          <mxGeometry x="570" y="670" width="100" height="40" as="geometry" />
        </mxCell>
        <mxCell id="k-lAL7GCRfudDe_dbAZE-28" value="Hora-Cita" style="ellipse;whiteSpace=wrap;html=1;align=center;" vertex="1" parent="1">
          <mxGeometry x="715" y="670" width="100" height="40" as="geometry" />
        </mxCell>
        <mxCell id="k-lAL7GCRfudDe_dbAZE-29" value="" style="endArrow=none;html=1;rounded=0;" edge="1" parent="1" target="k-lAL7GCRfudDe_dbAZE-28">
          <mxGeometry relative="1" as="geometry">
            <mxPoint x="667" y="660" as="sourcePoint" />
            <mxPoint x="827" y="660" as="targetPoint" />
          </mxGeometry>
        </mxCell>
        <mxCell id="k-lAL7GCRfudDe_dbAZE-31" value="" style="endArrow=none;html=1;rounded=0;" edge="1" parent="1" target="k-lAL7GCRfudDe_dbAZE-26">
          <mxGeometry relative="1" as="geometry">
            <mxPoint x="667" y="659.5" as="sourcePoint" />
            <mxPoint x="827" y="659.5" as="targetPoint" />
          </mxGeometry>
        </mxCell>
        <mxCell id="k-lAL7GCRfudDe_dbAZE-32" value="" style="endArrow=none;html=1;rounded=0;" edge="1" parent="1" target="t69FuDpfa9cgYGg4j1Pl-5">
          <mxGeometry relative="1" as="geometry">
            <mxPoint x="630" y="670" as="sourcePoint" />
            <mxPoint x="790" y="670" as="targetPoint" />
          </mxGeometry>
        </mxCell>
        <mxCell id="FPyedfTyDWdFuivU1o7g-2" value="idCategoriaCita" style="ellipse;whiteSpace=wrap;html=1;align=center;dashed=1;" vertex="1" parent="1">
          <mxGeometry x="700" y="1190" width="130" height="40" as="geometry" />
        </mxCell>
        <mxCell id="FPyedfTyDWdFuivU1o7g-3" value="CategoriaCita" style="ellipse;whiteSpace=wrap;html=1;align=center;" vertex="1" parent="1">
          <mxGeometry x="600" y="1170" width="100" height="40" as="geometry" />
        </mxCell>
        <mxCell id="FPyedfTyDWdFuivU1o7g-5" value="" style="endArrow=none;html=1;rounded=0;" edge="1" parent="1" source="FPyedfTyDWdFuivU1o7g-3" target="t69FuDpfa9cgYGg4j1Pl-18">
          <mxGeometry width="50" height="50" relative="1" as="geometry">
            <mxPoint x="660" y="1110" as="sourcePoint" />
            <mxPoint x="710" y="1060" as="targetPoint" />
          </mxGeometry>
        </mxCell>
        <mxCell id="FPyedfTyDWdFuivU1o7g-6" value="" style="endArrow=none;html=1;rounded=0;" edge="1" parent="1" source="FPyedfTyDWdFuivU1o7g-2" target="t69FuDpfa9cgYGg4j1Pl-18">
          <mxGeometry width="50" height="50" relative="1" as="geometry">
            <mxPoint x="667" y="1180" as="sourcePoint" />
            <mxPoint x="678" y="1150" as="targetPoint" />
          </mxGeometry>
        </mxCell>
      </root>
    </mxGraphModel>
  </diagram>
</mxfile>
